<mxfile host="app.diagrams.net" modified="2023-08-08T09:48:51.691Z" agent="Mozilla/5.0 (Windows NT 10.0; WOW64) AppleWebKit/537.36 (KHTML, like Gecko) Chrome/102.0.0.0 Safari/537.36" version="21.6.6" etag="THnI75hvPd1SpvDFOgJY" type="github">
  <diagram name="Trang-1" id="MOCj5j_WIuJJN61G7sd_">
    <mxGraphModel>
      <root>
        <mxCell id="0" />
        <mxCell id="1" parent="0" />
      </root>
    </mxGraphModel>
  </diagram>
</mxfile>
